<?xml version="1.0" encoding="UTF-8"?>
<svg width="190px" height="36px" viewBox="0 0 190 36" version="1.1" xmlns="http://www.w3.org/2000/svg" xmlns:xlink="http://www.w3.org/1999/xlink">
    <!-- Generator: Sketch 46.2 (44496) - http://www.bohemiancoding.com/sketch -->
    <title>Page 1@2x</title>
    <desc>Created with Sketch.</desc>
    <defs>
        <polygon id="path-1" points="0.25545738 19.9279279 13.1262994 19.9279279 13.1262994 0.242969369 0.25545738 0.242969369 0.25545738 19.9279279"></polygon>
    </defs>
    <g id="Components" stroke="none" stroke-width="1" fill="none" fill-rule="evenodd">
        <g id="component-/-navigation-bar" transform="translate(-216.000000, -21.000000)">
            <g id="Page-1" transform="translate(216.000000, 21.000000)">
                <path d="M79.2515,27 C79.1605,27.1545 79.076,27.309 79,27.465 C79.099,27.3195 79.183,27.164 79.2515,27" id="Fill-1" fill="#F7F2E7"></path>
                <path d="M0.0242169058,31.8894827 C0.224243938,30.225356 0.779132792,28.5658171 1.26084102,26.9623524 C1.42389258,26.4207275 1.58668737,25.8791025 1.74896861,25.3382422 C2.14029235,24.0378325 2.63432574,22.7713222 3.22105459,21.5476322 C2.64639413,21.7431269 1.46985515,22.2954569 0.319763908,23.7679122 C0.319763908,23.7679122 5.2115675,16.1632429 8.53884643,14.0380341 C10.3526987,12.2079789 12.4240955,10.7643254 14.5761193,9.34208203 C17.2663417,7.56402289 19.9776195,5.79488463 22.7271567,4.10297573 C24.7828902,2.83773984 26.8809915,1.58601271 29.1806604,0.771153904 C31.3095746,0.0169570889 33.6932087,-0.438517635 35.7977293,0.633262564 C38.9383334,2.23213942 41.1347792,4.92318707 43.9685383,6.91789618 C45.847868,8.24099036 47.6979255,8.91286018 50.0525441,8.4250154 C50.4567065,8.34090423 50.9391851,8.24532336 51.2342185,8.52441951 C51.4175552,8.69646508 51.4624907,8.97046359 51.4165281,9.21362133 C51.3703088,9.45652419 51.2462869,9.67776205 51.1309953,9.89874504 C50.5581323,10.9965232 49.5664707,12.8946319 50.7512264,13.93863 C51.154105,14.2936811 51.742888,14.4035353 52.2831408,14.3285999 C52.8231367,14.2523901 53.3233327,14.0112714 53.787837,13.7347241 C54.8365025,13.1115368 55.7493345,12.2999915 56.6462464,11.4856424 C57.7236706,10.5066394 58.7885129,9.51591178 59.8412867,8.51244004 C60.118346,8.24812706 60.5659033,7.97285415 60.8540038,8.22722671 C61.0535173,8.40233087 61.0093521,8.70997385 60.9495238,8.96358177 C60.4429085,11.1020445 60.0336105,13.2514672 59.2414624,15.3070932 C58.1342524,18.1808915 57.365214,22.1007268 54.5455774,23.9549958 C52.8218528,25.0882026 50.5820123,25.1124164 48.5755794,25.0130123 C46.3611594,24.9029032 44.175755,24.4978952 42.0185957,24.0248335 C40.9388605,23.7875381 39.6670584,23.5158335 38.6112032,23.9753864 C38.5714032,23.8772567 38.5316032,23.7735196 38.4930871,23.6646848 C38.4173388,23.4444665 38.3385091,23.2041124 38.2776536,22.9433678 C38.2121762,22.6841525 38.1595376,22.4063307 38.1230756,22.1157649 C38.0825053,21.8254539 38.0686395,21.5223988 38.0653015,21.2129717 C38.0696666,20.9048189 38.0858434,20.5890197 38.1333466,20.2762791 L38.1680111,20.0412776 L38.2160279,19.8083152 C38.244273,19.6520723 38.289722,19.5001624 38.3302923,19.3482525 C38.4155413,19.0444328 38.5239,18.751573 38.6425297,18.4719671 C38.7657812,18.1944002 38.8959657,17.928558 39.0382186,17.6851453 C39.0736534,17.6242285 39.1057502,17.5620372 39.1416985,17.5034142 C39.1789308,17.4458108 39.2153927,17.3887172 39.2513411,17.3331528 C39.3258056,17.222279 39.3892288,17.1091113 39.4649771,17.0104718 C39.6131358,16.8111538 39.7428067,16.6220311 39.8768428,16.4688469 C40.0070273,16.312604 40.1166698,16.1721638 40.219893,16.0671523 C40.4194065,15.8505023 40.533671,15.7273942 40.533671,15.7273942 C40.533671,15.7273942 40.4040001,15.8362289 40.1775253,16.0273907 C40.0606931,16.1196581 39.9330763,16.2460797 39.7818364,16.3880492 C39.626488,16.5259405 39.4713965,16.6990056 39.2949927,16.8845599 C39.2051217,16.9755529 39.1250082,17.0813291 39.0346237,17.1858309 C38.9902018,17.2391013 38.9452663,17.2926266 38.899047,17.3469165 C38.8548818,17.4027357 38.8132844,17.4616135 38.7691193,17.5204914 C38.589891,17.7526892 38.4186226,18.0113947 38.2524898,18.2874323 C38.089695,18.5644894 37.935117,18.859898 37.8015944,19.1723837 C37.7368874,19.3288815 37.6675584,19.4863988 37.6149197,19.6500332 L37.5301842,19.8949751 L37.4598281,20.1450147 C37.3635378,20.4781459 37.3001146,20.8199431 37.2513275,21.1597013 C37.2094733,21.4994594 37.1819985,21.8379432 37.1840527,22.1664865 C37.1825121,22.4942652 37.200743,22.8126132 37.2359211,23.1120999 C37.266734,23.4128611 37.3186023,23.694506 37.3720114,23.954486 C37.4842216,24.4726618 37.6233932,24.8970409 37.7386848,25.1939788 C37.7515235,25.2273684 37.7638486,25.2597384 37.775917,25.2900694 C37.7977428,25.3800429 37.8254744,25.4687419 37.8537196,25.5564215 C38.54778,27.7012563 39.3640649,29.8703049 39.8529628,32.0676455 C40.0172982,32.8075689 39.980066,33.6560722 39.4552197,34.2183426 C39.1185889,34.5797657 38.6271232,34.7714372 38.1364279,34.8789976 C36.4969252,35.2383817 34.7554832,34.7612419 33.3172914,33.922934 C31.6397861,32.9446956 30.1869582,31.5408037 28.8311909,30.1904371 C27.5570777,28.9211231 26.2639633,28.0942848 24.4151897,27.7784856 C22.7220212,27.4899588 20.9867418,27.6153609 19.2696933,27.7038051 C17.7819441,27.7805247 16.2567059,27.8391476 14.8031076,28.1223219 C15.0655308,27.9311601 15.3374546,27.740763 15.6217035,27.5559734 C15.7844983,27.4463739 15.9547395,27.3472247 16.1218995,27.2409388 C16.2931678,27.1402603 16.4644361,27.0383073 16.6382722,26.9409423 C16.9879986,26.7485061 17.34209,26.5626969 17.701317,26.3998271 C17.7909312,26.358791 17.8802886,26.317755 17.9693892,26.2767189 C18.0597737,26.2392512 18.1496446,26.2020384 18.2387452,26.1650805 C18.4169465,26.0878511 18.5966884,26.0220915 18.7738625,25.9570965 C18.949496,25.888788 19.1271837,25.8350079 19.3002494,25.778424 C19.4728016,25.7190364 19.6456106,25.6759613 19.8135409,25.6298276 C19.9801873,25.5806353 20.1458066,25.5457164 20.3055201,25.5105426 C20.3856336,25.492446 20.4644632,25.4748591 20.5422658,25.4580369 C20.6198116,25.4445281 20.6968438,25.4312742 20.7718219,25.4185301 C21.0714772,25.3611816 21.3503339,25.3336543 21.5973506,25.3053624 C21.8456512,25.284462 22.0623685,25.2750314 22.2421104,25.2648361 C22.6013374,25.2648361 22.8064999,25.2643263 22.8064999,25.2643263 C22.8064999,25.2643263 22.6013374,25.2439357 22.2433943,25.2077424 C22.0631389,25.1995862 21.8443673,25.187097 21.5922151,25.1830189 C21.340063,25.187097 21.0547869,25.1855677 20.744347,25.213095 C20.6668012,25.2187024 20.5872013,25.2238 20.5063174,25.2294074 C20.4262039,25.2388381 20.3440362,25.2490334 20.2605846,25.258464 C20.0939382,25.2783448 19.9198453,25.2972061 19.7449822,25.330086 C19.5685784,25.3599072 19.3857552,25.3861601 19.202932,25.4292352 C19.0193385,25.4687419 18.830096,25.5059548 18.6421374,25.5576959 C18.4523813,25.6058686 18.2592872,25.6553158 18.0679905,25.7159778 C17.9714434,25.7452893 17.8743828,25.774091 17.7768086,25.8031476 C17.6807751,25.8362823 17.5837145,25.8691621 17.4869106,25.9028066 C17.0968708,26.0327965 16.710169,26.1885296 16.3260349,26.3511446 C16.1342246,26.4334716 15.9454957,26.521406 15.7565099,26.608066 C15.5708622,26.6998236 15.38239,26.7864836 15.2013643,26.8825742 C14.8364883,27.0699127 14.4836806,27.2654075 14.1475633,27.4649804 C13.811446,27.662769 13.4927894,27.8641261 13.1944178,28.0619148 C12.8960463,28.2594486 12.6189871,28.4539238 12.3668349,28.637694 C11.8692066,28.9996269 11.4701797,29.3248567 11.1897823,29.5616424 C10.0833427,30.2885668 9.08654561,31.184988 7.97830854,31.9052854 C6.55860448,32.8264302 5.02104111,33.6015273 3.36741583,34.0483361 C2.87030115,34.1824042 2.35598261,34.2874157 1.84140729,34.2524968 C1.32631842,34.2183426 0.805323751,34.0302394 0.46355741,33.6583661 C0.0337175479,33.1904021 -0.0502475864,32.5101212 0.0242169058,31.8894827 M48.8128386,17.2457282 C50.0245557,18.0891338 50.3786472,16.5636631 50.3786472,16.5636631 C50.3786472,16.5636631 49.586499,16.5960331 49.0762889,16.1359705 C48.7255354,15.8188969 48.6639097,15.1266365 48.4587471,14.6074412 C48.4587471,14.6074412 47.6011216,16.4018128 48.8128386,17.2457282" id="Fill-3" fill="#DAF0F5"></path>
                <g id="Group-22" transform="translate(65.000000, 8.000000)">
                    <path d="M6.39158004,12.1223856 C3.39885655,10.8533045 0.929261954,9.33045766 0.929261954,6.34076396 C0.929261954,4.11287207 2.78866944,1.4337009 6.59480249,1.4337009 C10.2265593,1.4337009 12.1150728,4.28213333 12.1150728,4.28213333 L10.9531705,5.15643964 C10.9531705,5.15643964 9.5002079,2.87204324 6.62390852,2.87204324 C4.06725572,2.87204324 2.44017672,4.36663784 2.44017672,6.34076396 C2.44017672,8.76616937 4.73539501,9.83773694 7.64080042,11.078818 C10.7496881,12.4044036 12.4929314,13.9272505 12.4929314,16.5781694 C12.4929314,19.7651243 9.81985447,21.8520072 6.42068607,21.8520072 C1.94615385,21.8520072 0.115852391,17.8192505 0.115852391,17.8192505 L1.48123701,17.0294486 C1.48123701,17.0294486 2.81777547,20.4136649 6.42068607,20.4136649 C8.94823285,20.4136649 10.9822765,18.9473225 10.9822765,16.5781694 C10.9822765,14.1245117 8.77385655,13.1374486 6.39158004,12.1223856" id="Fill-5" fill="#FEFEFE"></path>
                    <path d="M14.9325624,8.65343784 L17.8088617,8.65343784 L17.8088617,4.50767207 L19.3197765,4.50767207 L19.3197765,8.65343784 L23.8231549,8.65343784 L23.8231549,10.0070234 L19.3197765,10.0070234 L19.3197765,17.7627712 C19.3197765,19.2008613 19.8429054,20.4136901 21.6441008,20.4136901 C22.6900988,20.4136901 23.6196726,19.8214018 23.6196726,19.8214018 L24.2010135,21.0907351 C24.2010135,21.0907351 22.9226871,21.8520324 21.5861486,21.8520324 C19.0001299,21.8520324 17.8088617,20.1599243 17.8088617,18.0445369 L17.8088617,10.0070234 L14.9325624,10.0070234 L14.9325624,8.65343784 Z" id="Fill-7" fill="#FEFEFE"></path>
                    <path d="M37.4781445,12.7426739 C37.4781445,12.7426739 36.0542879,9.75323243 32.6842256,9.75323243 C29.7203482,9.75323243 27.6868243,12.0941333 27.6868243,15.0835748 C27.6868243,18.0730162 29.7203482,20.4136649 32.6842256,20.4136649 C36.0542879,20.4136649 37.4781445,17.4244757 37.4781445,17.4244757 L37.4781445,12.7426739 Z M38.9887994,8.65341261 L38.9887994,21.5137369 L37.6234148,21.5137369 L37.6234148,19.1445838 C37.6234148,19.1445838 36.1125,21.8520072 32.6548597,21.8520072 C28.9942568,21.8520072 26.1176975,19.0880793 26.1176975,15.0835748 C26.1176975,11.078818 28.9942568,8.31489009 32.6548597,8.31489009 C36.1125,8.31489009 37.6234148,11.0225658 37.6234148,11.0225658 L37.6234148,8.65341261 L38.9887994,8.65341261 Z" id="Fill-9" fill="#FEFEFE"></path>
                    <path d="M53.0503638,21.5136108 L51.5394491,21.5136108 L51.5394491,13.5040973 C51.5394491,10.8814306 50.3190748,9.75335856 48.3143971,9.75335856 C45.8156965,9.75335856 44.6826403,12.2352685 44.6826403,12.2352685 L44.6826403,21.5136108 L43.1717256,21.5136108 L43.1717256,8.65353874 L44.5373701,8.65353874 L44.5373701,10.8249261 C44.5373701,10.8249261 45.6995322,8.31501622 48.6628898,8.31501622 C50.2902287,8.31501622 51.8879418,9.02006126 52.6725052,10.8249261 C52.7598233,10.6559171 53.9799376,8.31501622 56.9144491,8.31501622 C58.9482328,8.31501622 61.3016632,9.44308829 61.3016632,13.0530703 L61.3016632,21.5136108 L59.7907484,21.5136108 L59.7907484,13.5040973 C59.7907484,10.8814306 58.5706341,9.75335856 56.5656965,9.75335856 C54.0672557,9.75335856 53.0503638,12.2352685 53.0503638,12.2352685 L53.0503638,21.5136108 Z" id="Fill-11" fill="#FEFEFE"></path>
                    <g id="Group-15" transform="translate(65.228690, 8.072072)">
                        <mask id="mask-2" fill="white">
                            <use xlink:href="#path-1"></use>
                        </mask>
                        <g id="Clip-14"></g>
                        <path d="M1.76611227,9.3523027 C1.76611227,9.3523027 3.18996881,12.3417441 6.53118503,12.3417441 C9.49454262,12.3417441 11.5574324,10.0008432 11.5574324,7.01165405 C11.5574324,4.02196036 9.49454262,1.68131171 6.53118503,1.68131171 C3.18996881,1.68131171 1.76611227,4.6705009 1.76611227,4.6705009 L1.76611227,9.3523027 Z M1.620842,0.58123964 L1.620842,2.95039279 C1.620842,2.95039279 3.13175676,0.242969369 6.56003119,0.242969369 C10.2502599,0.242969369 13.1262994,3.0068973 13.1262994,7.01165405 C13.1262994,11.0161586 10.2502599,13.7800865 6.56003119,13.7800865 C3.62551975,13.7800865 2.14371102,11.8059604 1.76611227,11.2981766 L1.76611227,19.9279784 L0.25545738,19.9279784 L0.25545738,0.58123964 L1.620842,0.58123964 Z" id="Fill-13" fill="#FEFEFE" mask="url(#mask-2)"></path>
                    </g>
                    <path d="M91.8352391,14.3219748 C91.777027,12.8556324 90.4698545,9.75343423 86.9831081,9.75343423 C83.2933992,9.75343423 82.0732848,12.9118847 82.0150728,14.3219748 L91.8352391,14.3219748 Z M93.404106,15.0837766 C93.404106,15.3372901 93.404106,15.3655423 93.3752599,15.6758126 L81.9568607,15.6758126 C82.0732848,17.6216865 83.72921,20.4136144 87.2448025,20.4136144 C89.2785863,20.4136144 90.8765593,19.3137946 91.777027,18.2139748 L92.7939189,19.2292901 C91.5158524,20.7238847 89.4238565,21.852209 87.2448025,21.852209 C83.2933992,21.852209 80.4459459,18.7500108 80.4459459,15.0837766 C80.4459459,11.4455423 83.0319647,8.31509189 86.9831081,8.31509189 C90.4987006,8.31509189 93.404106,11.1352721 93.404106,15.0837766 L93.404106,15.0837766 Z" id="Fill-16" fill="#FEFEFE"></path>
                    <path d="M106.855457,12.7426739 C106.855457,12.7426739 105.431601,9.75323243 102.090385,9.75323243 C99.127027,9.75323243 97.0641372,12.0941333 97.0641372,15.0835748 C97.0641372,18.0730162 99.127027,20.4136649 102.090385,20.4136649 C105.402755,20.4136649 106.855457,17.4244757 106.855457,17.4244757 L106.855457,12.7426739 Z M107.000728,21.5137369 L107.000728,19.1445838 C107.000728,19.1445838 105.460967,21.8520072 102.090385,21.8520072 C98.4006757,21.8520072 95.4950104,19.0880793 95.4950104,15.0835748 C95.4950104,11.078818 98.4006757,8.31489009 102.090385,8.31489009 C104.99605,8.31489009 106.536071,10.3175207 106.884304,10.8248 L106.884304,0.192872072 L108.366112,0.192872072 L108.366112,21.5137369 L107.000728,21.5137369 Z" id="Fill-18" fill="#FEFEFE"></path>
                    <path d="M123.357043,14.3219748 C123.298831,12.8556324 121.991658,9.75343423 118.504912,9.75343423 C114.815203,9.75343423 113.595088,12.9118847 113.536876,14.3219748 L123.357043,14.3219748 Z M124.92591,15.0837766 C124.92591,15.3372901 124.92591,15.3655423 124.897063,15.6758126 L113.478664,15.6758126 C113.595088,17.6216865 115.251014,20.4136144 118.766606,20.4136144 C120.80039,20.4136144 122.398363,19.3137946 123.298831,18.2139748 L124.315722,19.2292901 C123.037656,20.7238847 120.94566,21.852209 118.766606,21.852209 C114.815203,21.852209 111.967749,18.7500108 111.967749,15.0837766 C111.967749,11.4455423 114.553768,8.31509189 118.504912,8.31509189 C122.020504,8.31509189 124.92591,11.1352721 124.92591,15.0837766 L124.92591,15.0837766 Z" id="Fill-20" fill="#FEFEFE"></path>
                </g>
            </g>
        </g>
    </g>
</svg>